<?xml version="1.0" encoding="utf-8"?>
<svg version="1.1" xmlns="http://www.w3.org/2000/svg" xmlns:xlink="http://www.w3.org/1999/xlink" x="0px" y="0px"
	 viewBox="0 0 119.06 31.08" width="119" height="31.08" style="enable-background:new 0 0 119.06 31.08;" xml:space="preserve">
<style type="text/css">.st0{fill:#005795;}</style>
	<path class="st0" d="M25.34,22.97c0,1.32-0.27,2.48-0.82,3.45c-0.55,0.98-1.29,1.79-2.24,2.44c-0.95,0.65-2.06,1.14-3.32,1.47
		c-1.27,0.33-2.6,0.5-4.01,0.5H0V0.17h17.05c1.06,0,2.03,0.23,2.89,0.69c0.86,0.46,1.6,1.06,2.2,1.79s1.07,1.57,1.4,2.5
		c0.33,0.94,0.5,1.89,0.5,2.87c0,1.47-0.37,2.85-1.1,4.14c-0.73,1.29-1.83,2.27-3.3,2.94c1.76,0.52,3.14,1.44,4.17,2.76
		C24.83,19.2,25.34,20.89,25.34,22.97z M7.08,6.22v6.35h6.95c0.78,0,1.47-0.26,2.07-0.78c0.6-0.52,0.91-1.32,0.91-2.42
		c0-1.01-0.27-1.78-0.8-2.33s-1.17-0.82-1.92-0.82H7.08z M18.13,21.54c0-0.95-0.27-1.76-0.82-2.42s-1.24-0.99-2.07-0.99H7.08v6.69
		h7.86c0.92,0,1.68-0.3,2.29-0.91C17.83,23.31,18.13,22.52,18.13,21.54z"/>
	<path class="st0" d="M42.95,31.08c-2.27,0-4.35-0.45-6.22-1.34c-1.87-0.89-3.47-2.06-4.79-3.52c-1.32-1.45-2.35-3.12-3.09-4.99
		c-0.73-1.87-1.1-3.8-1.1-5.78c0-2.01,0.38-3.96,1.14-5.83c0.76-1.87,1.83-3.52,3.19-4.94c1.37-1.42,2.99-2.56,4.86-3.41
		C38.82,0.43,40.86,0,43.08,0c2.27,0,4.34,0.45,6.22,1.34c1.87,0.89,3.47,2.07,4.79,3.54c1.32,1.47,2.34,3.14,3.06,5.01
		c0.72,1.87,1.08,3.77,1.08,5.7c0,2.01-0.38,3.96-1.14,5.83c-0.76,1.87-1.82,3.52-3.17,4.94c-1.35,1.43-2.96,2.57-4.83,3.43
		C47.21,30.65,45.17,31.08,42.95,31.08z M34.96,15.54c0,1.18,0.17,2.32,0.52,3.43c0.34,1.11,0.86,2.09,1.53,2.96
		c0.68,0.86,1.52,1.55,2.53,2.07c1.01,0.52,2.16,0.78,3.45,0.78c1.35,0,2.53-0.27,3.54-0.82c1.01-0.55,1.84-1.26,2.5-2.14
		c0.66-0.88,1.16-1.87,1.49-2.98c0.33-1.11,0.5-2.24,0.5-3.39c0-1.18-0.17-2.32-0.52-3.43c-0.35-1.11-0.86-2.09-1.55-2.94
		c-0.69-0.85-1.53-1.52-2.53-2.03c-0.99-0.5-2.14-0.76-3.43-0.76c-1.35,0-2.53,0.27-3.52,0.8c-0.99,0.53-1.83,1.23-2.5,2.09
		c-0.68,0.86-1.18,1.85-1.51,2.96C35.13,13.26,34.96,14.39,34.96,15.54z"/>
	<path class="st0" d="M60.56,15.24c0-1.84,0.34-3.68,1.04-5.5c0.69-1.83,1.7-3.46,3.02-4.9c1.32-1.44,2.94-2.6,4.83-3.5
		C71.36,0.45,73.51,0,75.93,0c2.88,0,5.38,0.62,7.49,1.86c2.12,1.24,3.69,2.85,4.73,4.83l-5.44,3.8c-0.34-0.81-0.78-1.47-1.32-2.01
		c-0.53-0.53-1.12-0.96-1.75-1.3c-0.63-0.33-1.28-0.56-1.94-0.69c-0.66-0.13-1.31-0.19-1.94-0.19c-1.35,0-2.53,0.27-3.54,0.82
		c-1.01,0.55-1.84,1.25-2.5,2.12s-1.15,1.84-1.47,2.94c-0.32,1.09-0.47,2.2-0.47,3.32c0,1.21,0.19,2.37,0.56,3.5
		c0.37,1.12,0.91,2.12,1.62,2.98s1.55,1.55,2.55,2.05s2.11,0.75,3.35,0.75c0.63,0,1.29-0.08,1.96-0.24c0.68-0.16,1.32-0.4,1.94-0.73
		c0.62-0.33,1.19-0.76,1.71-1.29c0.52-0.53,0.94-1.19,1.25-1.96l5.79,3.41c-0.46,1.12-1.14,2.13-2.05,3.02s-1.95,1.64-3.13,2.24
		c-1.18,0.6-2.43,1.06-3.76,1.38c-1.32,0.32-2.62,0.47-3.88,0.47c-2.22,0-4.25-0.45-6.11-1.36s-3.45-2.11-4.79-3.6
		c-1.34-1.5-2.38-3.2-3.11-5.09C60.93,19.12,60.56,17.2,60.56,15.24z"/>
	<path class="st0" d="M92.03,30.82V0.17h7.08v13.21l11.22-13.21h7.94L106.8,13.86l12.26,16.97h-8.07l-8.68-12.35l-3.19,3.32v9.02
		H92.03z"/>
</svg>
